<svg width="16" height="16" viewBox="0 0 16 16" fill="none" xmlns="http://www.w3.org/2000/svg">
<path d="M4.80005 1.6C5.24255 1.6 5.60005 1.9575 5.60005 2.4V3.2H8.80005C9.24255 3.2 9.60005 3.5575 9.60005 4C9.60005 4.4425 9.24255 4.8 8.80005 4.8H8.56005L8.35005 5.3775C7.94005 6.5075 7.32255 7.54 6.54505 8.4275C6.90005 8.6475 7.27005 8.8425 7.65505 9.015L8.91505 9.575L10.47 6.075C10.5975 5.785 10.885 5.6 11.2 5.6C11.515 5.6 11.8025 5.785 11.93 6.075L15.13 13.275C15.31 13.68 15.1275 14.1525 14.725 14.33C14.3225 14.5075 13.8475 14.3275 13.67 13.925L13.17 12.8H9.23255L8.73255 13.925C8.55255 14.33 8.08005 14.51 7.67755 14.33C7.27505 14.15 7.09255 13.6775 7.27255 13.275L8.26755 11.0375L7.00755 10.4775C6.43255 10.2225 5.88255 9.9175 5.36255 9.5675C4.83005 9.9975 4.24755 10.3725 3.62505 10.685L2.75755 11.115C2.36255 11.3125 1.88255 11.1525 1.68505 10.7575C1.48755 10.3625 1.64755 9.8825 2.04255 9.685L2.90505 9.2525C3.31255 9.0475 3.70005 8.81 4.06505 8.545C3.72005 8.2275 3.39505 7.885 3.09255 7.5225L2.84005 7.2175C2.55755 6.8775 2.60255 6.3725 2.94255 6.09C3.28255 5.8075 3.78755 5.8525 4.07005 6.1925L4.32505 6.4975C4.61255 6.845 4.92755 7.1675 5.26005 7.465C5.94755 6.705 6.49005 5.8125 6.84755 4.83L6.86005 4.8H1.60255C1.15755 4.8 0.800049 4.4425 0.800049 4C0.800049 3.5575 1.15755 3.2 1.60005 3.2H4.00005V2.4C4.00005 1.9575 4.35755 1.6 4.80005 1.6ZM11.2 8.37L9.94255 11.2H12.4575L11.2 8.37Z" fill="#252525"/>
</svg>
