<?xml version="1.0" encoding="UTF-8"?>
<svg id="Layer_2" data-name="Layer 2" xmlns="http://www.w3.org/2000/svg" viewBox="0 0 600 173.16">
  <defs>
    <style>
      .cls-1 {
        fill: #fff;
      }
    </style>
  </defs>
  <g id="Layer_1-2" data-name="Layer 1">
    <g>
      <path class="cls-1" d="M272.33,42.22c0,9.88-1.42,18.8-4.26,26.74-2.84,7.95-7,14.53-12.49,19.74l18.78,46.18c.54,1.49.57,2.79.1,3.91-.48,1.12-1.32,1.67-2.54,1.67h-20.81c-.95,0-1.71-.22-2.28-.66-.57-.44-1.07-1.23-1.47-2.38l-14.62-37.35c-.88.14-1.74.24-2.59.31s-1.71.14-2.59.2v36.54c0,2.24-1.25,3.35-3.76,3.35h-18.68c-2.16,0-3.25-1.12-3.25-3.35V3.45c0-2.3,1.09-3.45,3.25-3.45h18.68c2.5,0,3.76,1.15,3.76,3.45v70.24c3.52-.61,6.41-1.91,8.68-3.91,2.26-2,4.04-4.52,5.33-7.56,1.29-3.04,2.18-6.48,2.69-10.3.51-3.82.76-7.87.76-12.13,0-1.08.32-1.89.96-2.44s1.54-.81,2.69-.81h19.59c.95,0,1.86.39,2.74,1.17.88.78,1.32,2.29,1.32,4.52Z"/>
      <path class="cls-1" d="M312.22,36.44h10.25c1.89,0,2.84,1.25,2.84,3.76v15.22c0,1.15-.29,2.06-.86,2.74s-1.34,1.02-2.28,1.02h-9.95v49.43c0,2.84.68,5.02,2.03,6.55,1.35,1.52,3.89,2.28,7.61,2.28h1.72c.75,0,1.32.14,1.73.41.4.27.71.59.91.96.2.37.32.78.36,1.22.03.44.05.83.05,1.17v16.04c0,.34-.04.71-.1,1.12-.07.41-.29.76-.66,1.07-.37.3-.93.56-1.68.76-.75.2-1.79.31-3.15.31h-6.39c-3.93,0-7.6-.47-11.01-1.42-3.42-.95-6.39-2.57-8.93-4.87-2.54-2.3-4.55-5.39-6.04-9.29-1.49-3.89-2.23-8.81-2.23-14.76v-50.95h-5.99c-.54,0-1.18-.32-1.93-.97s-1.12-1.57-1.12-2.79v-15.02c0-1.35.35-2.35,1.06-2.99s1.37-.97,1.98-.97h5.99v-15.53c0-1.15.18-2.03.56-2.64.37-.61,1.13-1.08,2.28-1.42l18.98-5.58c1.15-.27,2.1-.1,2.84.51.75.61,1.12,1.52,1.12,2.74v21.92Z"/>
      <path class="cls-1" d="M0,3.45C0,1.15,1.12,0,3.35,0h19.08c2.17,0,3.25,1.15,3.25,3.45v34c4.33-1.89,8.43-2.84,12.28-2.84,4.53,0,8.73.75,12.58,2.24,3.86,1.49,7.19,3.58,10,6.29,2.81,2.71,5.01,5.95,6.6,9.74,1.59,3.79,2.38,7.95,2.38,12.49v46.18c0,4.6-.91,8.78-2.74,12.54-1.83,3.76-4.32,7-7.46,9.74-3.15,2.74-6.83,4.86-11.06,6.34-4.23,1.49-8.75,2.24-13.55,2.24s-9.32-.75-13.55-2.24c-4.23-1.49-7.91-3.6-11.06-6.34-3.15-2.74-5.62-5.99-7.41-9.74-1.79-3.76-2.69-7.94-2.69-12.54V3.45ZM25.68,110.84c0,1.15.22,2.27.66,3.35.44,1.09,1.06,2.05,1.88,2.9.81.85,1.78,1.52,2.9,2.03,1.12.51,2.35.76,3.7.76,2.77,0,4.97-.93,6.59-2.79,1.63-1.86,2.44-3.94,2.44-6.25v-44.66c0-2.3-.81-4.38-2.44-6.25-1.62-1.86-3.82-2.79-6.59-2.79-1.42,0-2.69.25-3.81.76-1.12.51-2.06,1.18-2.84,2.03-.78.85-1.39,1.81-1.83,2.9-.44,1.08-.66,2.17-.66,3.25v44.76Z"/>
      <path class="cls-1" d="M188.88,52.92c-1.79-3.75-4.27-6.97-7.41-9.72-3.18-2.75-6.84-4.88-11.07-6.36-4.23-1.48-8.76-2.22-13.56-2.22s-9.33.74-13.56,2.22c-1.57.57-3.05,1.18-4.45,1.92.48.31.96.7,1.4,1.09,3.57,3.1,6.45,6.84,8.54,11.16,1.18,2.44,2.05,5.06,2.57,7.8,1.44-1.09,3.23-1.66,5.41-1.66,1.35,0,2.57.26,3.71.74,1.09.52,2.05,1.22,2.88,2.05.83.83,1.44,1.79,1.87,2.88.44,1.09.65,2.22.65,3.36v44.77c0,1.09-.22,2.18-.65,3.23-.44,1.09-1.05,2.05-1.83,2.92-.78.83-1.7,1.53-2.83,2.01-1.13.52-2.4.78-3.79.78-2.18,0-3.97-.57-5.45-1.7-.44-.35-.83-.7-1.18-1.09-1.61-1.88-2.4-3.97-2.4-6.23v-18.79h-25.68v19.58c0,2.79.35,5.45,1,7.93.44,1.61,1,3.1,1.7,4.58,1.61,3.4,3.79,6.32,6.5,8.81.31.35.65.61,1,.92,1.96,1.7,4.19,3.14,6.58,4.32,1.44.78,2.92,1.4,4.49,1.96,4.27,1.53,8.85,2.27,13.73,2.27s9.29-.83,13.43-2.4c4.19-1.61,7.8-3.79,10.99-6.54,3.14-2.79,5.62-6.06,7.41-9.81,1.79-3.75,2.66-7.76,2.66-12.03v-46.17c0-4.62-.87-8.81-2.66-12.56Z"/>
      <path class="cls-1" d="M146.89,58.9v-.09c-.17-.7-.35-1.4-.57-2.09-.04-.17-.09-.35-.17-.52-.13-.44-.31-.87-.48-1.31-.22-.7-.52-1.35-.83-2.01-.48-.96-.96-1.87-1.48-2.75-1.09-1.74-2.35-3.36-3.75-4.84-.7-.74-1.44-1.48-2.22-2.14-.31-.26-.61-.52-.92-.74l-.13-.09c-1.7-1.35-3.53-2.57-5.54-3.53-1.44-.78-2.96-1.4-4.53-1.96-4.27-1.48-8.85-2.22-13.73-2.22s-9.29.78-13.43,2.4c-4.14,1.57-7.8,3.75-10.99,6.54-3.14,2.79-5.58,6.06-7.37,9.81-1.83,3.75-2.7,7.76-2.7,12.03v46.17c0,4.58.87,8.76,2.7,12.51,1.79,3.79,4.23,7.02,7.37,9.77,3.18,2.75,6.84,4.84,11.07,6.32,4.23,1.53,8.76,2.27,13.56,2.27s9.33-.74,13.56-2.27c1.53-.52,3.01-1.18,4.4-1.92-.44-.35-.87-.7-1.31-1.05-.57-.48-.92-.78-1.26-1.13-3.05-2.88-5.54-6.23-7.32-10.03-.87-1.79-1.53-3.53-2.01-5.32-.22-.83-.39-1.66-.52-2.53-1.48,1.13-3.27,1.7-5.45,1.7-1.35,0-2.57-.26-3.66-.78-1.13-.48-2.09-1.18-2.92-2.01-.83-.87-1.44-1.83-1.87-2.92-.44-1.05-.65-2.18-.65-3.31v-44.77c0-1.09.22-2.18.65-3.27.44-1.05,1.05-2.05,1.83-2.88.78-.83,1.7-1.53,2.83-2.05,1.13-.48,2.4-.74,3.79-.74,2.79,0,5.01.92,6.63,2.79,1.61,1.87,2.44,3.92,2.44,6.23v18.75h25.68v-19.53c0-2.27-.22-4.4-.7-6.5Z"/>
      <path class="cls-1" d="M493.42,9.75c0-1.55.42-2.84,1.27-3.86.85-1.01,2.35-1.52,4.52-1.52h16.44c1.96,0,3.33.47,4.11,1.42.78.95,1.17,2.3,1.17,4.06v14.01c0,1.96-.46,3.28-1.37,3.96-.91.68-2.21,1.01-3.91,1.01h-16.34c-1.76,0-3.18-.34-4.26-1.01-1.09-.68-1.63-1.96-1.63-3.86v-14.21ZM494.54,39.69c0-.95.34-1.71,1.01-2.28s1.49-.86,2.44-.86h18.58c1.01,0,1.91.31,2.69.92.77.61,1.17,1.35,1.17,2.23v97.44c0,1.09-.35,1.92-1.06,2.49-.71.58-1.64.86-2.79.86h-18.58c-2.3,0-3.45-1.12-3.45-3.35V39.69Z"/>
      <path class="cls-1" d="M534.13,49.43c-.2-.47-.37-.97-.51-1.47-.14-.51-.15-1.01-.05-1.52.1-.51.35-1,.76-1.47.4-.47,1.05-.98,1.93-1.52,1.83-1.15,3.74-2.25,5.73-3.3,1.99-1.05,4.16-1.98,6.49-2.79,2.34-.81,4.91-1.47,7.71-1.98,2.81-.51,6.01-.76,9.59-.76,4.2,0,8.34.69,12.44,2.08,4.09,1.39,7.74,3.45,10.96,6.19,3.21,2.74,5.82,6.13,7.81,10.15,2,4.03,3,8.68,3,13.96v44.26c0,4.2-.61,7.88-1.83,11.06-1.22,3.18-2.82,5.92-4.82,8.22-2,2.3-4.25,4.21-6.75,5.73-2.51,1.52-5.05,2.74-7.61,3.65-2.58.91-5.08,1.55-7.51,1.93-2.44.37-4.57.56-6.39.56-3.99,0-8.07-.63-12.23-1.87-4.16-1.25-7.95-3.19-11.37-5.83-3.41-2.64-6.21-6.05-8.37-10.23-2.16-4.19-3.24-9.22-3.24-15.1v-2.23c0-5.33.89-9.95,2.69-13.83,1.79-3.89,4.18-7.06,7.16-9.53,2.98-2.47,6.45-4.29,10.41-5.47,3.96-1.18,8.07-1.74,12.33-1.67l11.98.1v-7.24c0-1.56-.24-3.16-.71-4.79-.48-1.63-1.22-3.12-2.24-4.49-1.01-1.36-2.33-2.48-3.96-3.36-1.63-.89-3.59-1.33-5.89-1.33-4.2,0-7.7.56-10.51,1.68-2.81,1.12-5.16,2.35-7.05,3.7-.95.61-1.86.98-2.74,1.12-.88.14-1.59-.3-2.13-1.32l-5.07-11.27ZM574.42,94.9h-4.77c-2.78,0-5.07.34-6.9,1.02-1.83.68-3.27,1.59-4.31,2.74-1.05,1.15-1.8,2.49-2.24,4.01-.44,1.52-.66,3.1-.66,4.72v1.52c0,1.96.31,3.64.92,5.02s1.38,2.52,2.33,3.4c.95.88,2,1.52,3.15,1.93,1.15.41,2.3.61,3.45.61,1.08,0,2.15-.18,3.2-.56,1.05-.37,2.01-.95,2.89-1.72.88-.78,1.59-1.76,2.13-2.94s.81-2.62.81-4.32v-15.43Z"/>
      <path class="cls-1" d="M403.09,58.9v-.09c-.17-.7-.35-1.4-.57-2.09-.04-.17-.09-.35-.17-.52-.13-.44-.31-.87-.48-1.31-.22-.7-.52-1.35-.83-2.01-.48-.96-.96-1.87-1.48-2.75-1.09-1.74-2.35-3.36-3.75-4.84-.7-.74-1.44-1.48-2.22-2.14-.31-.26-.61-.52-.92-.74l-.13-.09c-1.7-1.35-3.53-2.57-5.54-3.53-1.44-.78-2.96-1.4-4.53-1.96-.83-.29-1.68-.52-2.53-.75-.19-.05-.37-.12-.56-.17-.24-.06-.49-.11-.73-.17-2.97-.74-6.08-1.13-9.34-1.13-.1,0-.19.01-.28.01-.1,0-.19-.01-.28-.01-3.26,0-6.37.39-9.34,1.13-.24.06-.49.1-.74.17-.19.05-.37.11-.56.17-.85.23-1.7.47-2.53.75-1.57.57-3.1,1.18-4.53,1.96-2.01.96-3.84,2.18-5.54,3.53l-.13.09c-.31.22-.61.48-.92.74-.78.65-1.53,1.4-2.22,2.14-1.4,1.48-2.66,3.1-3.75,4.84-.52.87-1,1.79-1.48,2.75-.31.65-.61,1.31-.83,2.01-.17.44-.35.87-.48,1.31-.09.17-.13.35-.17.52-.22.7-.39,1.39-.57,2.09v.09c-.48,2.09-.7,4.23-.7,6.49v46.17c0,4.58.87,8.76,2.7,12.51,1.79,3.79,4.23,7.02,7.37,9.77,3.18,2.75,6.84,4.84,11.07,6.32,3.43,1.24,7.06,1.93,10.87,2.16.77.05,1.55.08,2.33.09.12,0,.24.01.36.01.02,0,.04,0,.07,0s.04,0,.07,0c.12,0,.24-.01.36-.01.78,0,1.56-.04,2.33-.09,3.81-.23,7.44-.92,10.87-2.16,4.23-1.48,7.89-3.58,11.07-6.32,3.14-2.75,5.58-5.97,7.37-9.77,1.83-3.75,2.7-7.93,2.7-12.51v-46.17c0-2.27-.22-4.4-.7-6.49ZM378.11,110.86c0,1.13-.22,2.27-.65,3.31-.44,1.09-1.05,2.05-1.87,2.92-.83.83-1.79,1.53-2.92,2.01-.79.38-1.66.62-2.59.72-.27.03-.55.05-.84.05-.07,0-.14.01-.22.01-.07,0-.14,0-.22-.01-.29,0-.56-.02-.84-.05-.93-.1-1.79-.34-2.59-.72-1.13-.48-2.09-1.18-2.92-2.01-.83-.87-1.44-1.83-1.87-2.92-.44-1.05-.65-2.18-.65-3.31v-44.69c0-.56.05-1.1.15-1.63,0-.03,0-.05.01-.08.09-.47.23-.93.4-1.39.03-.09.06-.17.09-.26,0-.01.01-.03.02-.04.21-.51.47-1,.76-1.48.01-.02.03-.04.05-.07.3-.46.63-.9,1-1.3.78-.83,1.7-1.53,2.83-2.05,1.13-.48,2.39-.74,3.77-.74,1.39,0,2.64.26,3.77.74,1.13.52,2.05,1.22,2.83,2.05.38.4.71.84,1,1.3.01.02.03.04.05.06.3.47.55.97.77,1.48,0,.01.01.02.02.03.04.09.06.17.09.26.17.45.31.91.4,1.38,0,.03,0,.05.01.08.1.53.15,1.07.15,1.63v44.69Z"/>
      <path class="cls-1" d="M484.24,62.99c-.26-3.64-1.1-7-2.56-10.07-1.79-3.75-4.27-6.97-7.41-9.72-3.18-2.75-6.84-4.88-11.07-6.36-4.23-1.48-8.76-2.22-13.56-2.22-.07,0-.14,0-.21,0-.05,0-.09,0-.14,0-2.88,0-5.63.32-8.27.89-1.68.35-3.34.77-4.94,1.33-1.57.57-3.05,1.18-4.45,1.92.05.03.11.08.16.12-2.51,1.31-4.83,2.85-6.92,4.68-3.14,2.79-5.58,6.06-7.37,9.81-1.83,3.75-2.7,7.76-2.7,12.03v26.68h-.02l.02,11.62v7.87c0,.11,0,.21,0,.32v57.83c0,2.3,1.12,3.45,3.35,3.45h19.08c2.16,0,3.25-1.15,3.25-3.45v-28.27c2.16.48,4.39.78,6.69.9.4.03.82.03,1.22.05.37,0,.73.04,1.1.04.08,0,.15,0,.23,0,.04,0,.08,0,.12,0,.16,0,.31-.02.47-.02.7-.01,1.4-.04,2.09-.09,3.84-.24,7.47-1,10.87-2.29,4.19-1.61,7.8-3.79,10.99-6.54,3.14-2.79,5.62-6.06,7.41-9.81,1.79-3.75,2.66-7.76,2.66-12.03v-46.25c0-.82-.04-1.62-.1-2.4ZM458.66,110.95c0,1.09-.22,2.18-.65,3.23-.44,1.09-1.05,2.05-1.83,2.92-.78.83-1.7,1.53-2.83,2.01-.56.26-1.15.45-1.77.58-.02,0-.04,0-.06.01-.28.06-.56.1-.85.13-.24.02-.48.04-.73.04-.13,0-.25.02-.38.02-.4,0-.77-.04-1.15-.08-.89-.11-1.71-.34-2.47-.7-1.13-.48-2.09-1.18-2.92-2.01-.19-.2-.37-.41-.54-.63-.1-.13-.2-.26-.29-.39-.15-.21-.29-.42-.42-.64-.82-1.43-1.24-2.96-1.24-4.58v-18.79h-.04v-25.98c0-1.09.22-2.18.65-3.27.44-1.05,1.05-2.05,1.83-2.88.78-.83,1.7-1.53,2.83-2.05.79-.34,1.65-.56,2.57-.66.31-.03.63-.06.97-.07.08,0,.17-.01.25-.01,0,0,0,0,0,0,1.33,0,2.54.26,3.66.74,1.09.52,2.05,1.22,2.88,2.05.17.17.32.35.47.53.22.29.46.58.65.88.02.04.04.07.06.11.27.45.5.9.69,1.37.03.08.06.17.09.25.16.42.28.85.37,1.29.02.09.03.17.05.26.09.51.14,1.02.14,1.56v44.77Z"/>
    </g>
  </g>
</svg>